<?xml version="1.0" encoding="UTF-8"?>
<svg width="220px" height="32px" viewBox="0 0 220 32" version="1.1" xmlns="http://www.w3.org/2000/svg" xmlns:xlink="http://www.w3.org/1999/xlink">
    <!-- Generator: Sketch 62 (91390) - https://sketch.com -->
    <title>default</title>
    <desc>Created with Sketch.</desc>
    <g id="Page-1" stroke="none" stroke-width="1" fill="none" fill-rule="evenodd">
        <g id="default" fill-rule="nonzero">
            <g id="52148171-5def-421d-827c-3fe258e8859d" transform="translate(43.376178, 4.920151)" fill="#FFFFFF">
                <path d="M9.15045295,21.2120776 C12.7769164,21.2120776 15.8202299,19.8635435 17.6790202,18.0958703 L17.6790202,11.4078699 L9.82472002,11.4078699 L9.82472002,14.3965132 L13.9796631,14.3965132 L13.9796631,16.6926659 C13.0867148,17.3851564 11.3554885,18.0412 9.33268729,18.0412 C5.70622385,18.0412 4.15723193,15.5263661 4.15723193,11.9545729 C4.15723193,8.40100325 5.65155355,6.05018021 9.22334668,6.05018021 C11.62884,6.05018021 13.013821,7.36226749 13.5240772,8.76547193 L17.2963281,7.635619 C16.2758158,4.73809294 13.6880881,2.8610792 9.20512325,2.8610792 C2.95448526,2.8610792 0.0205123248,6.3599786 0.0205123248,11.9545729 C0.0205123248,17.2575924 2.68113374,21.2120776 9.15045295,21.2120776 Z M25.3328627,7.56272526 L25.3328627,0.947618587 L21.2690368,0.947618587 L21.2690368,20.9569495 L25.3328627,20.9569495 L25.3328627,13.6857992 C25.3328627,11.5901043 26.2987047,10.0957826 27.8841435,10.0957826 C29.4331354,10.0957826 29.9980619,11.3349762 29.9980619,13.2848837 L29.9980619,20.9569495 L34.0618877,20.9569495 L34.0618877,12.209701 C34.0618877,9.09349375 32.6951302,7.03424567 29.6153697,7.03424567 C27.7565794,7.03424567 25.9706829,7.92719395 25.2235221,10.2597936 C25.2781924,9.54907961 25.3328627,8.52856729 25.3328627,7.56272526 Z M46.198695,14.1231616 C46.198695,17.1482517 45.2875233,18.5514562 43.3376158,18.5514562 C41.6063896,18.5514562 40.5676538,17.0024643 40.5676538,14.1231616 C40.5676538,11.243859 41.4788255,9.80420769 43.4105096,9.80420769 C45.1781827,9.80420769 46.198695,11.2620824 46.198695,14.1231616 Z M50.2625209,14.0867148 C50.2625209,9.93177173 48.2579431,7.03424567 43.3922861,7.03424567 C38.7270869,7.03424567 36.4856045,9.9682186 36.4856045,14.0867148 C36.4856045,18.3874453 38.7453104,21.2120776 43.3193924,21.2120776 C47.9845916,21.2120776 50.2625209,18.4056687 50.2625209,14.0867148 Z M63.6020748,16.7473362 C63.6020748,13.9955976 61.5610502,13.1026493 58.7546413,12.4648291 C56.0757965,11.8452323 55.7659981,11.4078699 55.7659981,10.6242622 C55.7659981,10.0046655 56.2580308,9.49440931 57.4790009,9.49440931 C58.6270773,9.49440931 59.4835787,10.0593358 59.538249,11.1345184 L63.2376062,10.8793903 C62.9278078,8.65613133 60.8685597,7.03424567 57.6065649,7.03424567 C54.0347718,7.03424567 52.1395346,8.6925782 52.1395346,11.1345184 C52.1395346,13.3760008 53.2693876,14.724535 56.7136167,15.5263661 C58.9368756,16.0366222 59.5929193,16.3828675 59.5929193,17.3122627 C59.5929193,18.1505406 58.9733225,18.6607968 57.6247884,18.6607968 C56.0393496,18.6607968 55.4561997,17.7131782 55.3650825,16.8020065 L51.7386191,17.202922 C52.0484175,19.298617 53.5791859,21.2120776 57.6794587,21.2120776 C61.6157205,21.2120776 63.6020748,19.5537451 63.6020748,16.7473362 Z M64.6225872,10.1686764 L66.4267072,10.1686764 L66.4267072,17.3304861 C66.4267072,19.8635435 67.7387945,21.2120776 70.0531706,21.2120776 C71.4745985,21.2120776 72.2764296,21.102737 73.0964842,21.0662901 L73.0964842,17.8771891 L71.8208438,17.8771891 C70.7638846,17.8771891 70.4358627,17.5673907 70.4358627,16.6015487 L70.4358627,10.1686764 L73.0418139,10.1686764 L73.0418139,7.28937375 L70.4358627,7.28937375 L70.4358627,3.09798384 L66.4267072,3.09798384 L66.4267072,7.28937375 L64.6225872,7.28937375 L64.6225872,10.1686764 Z M94.4725727,20.9569495 L99.5022406,20.9569495 L91.9395153,10.82472 L98.8279735,3.11620728 L93.8347525,3.11620728 L87.5112207,10.3873576 L87.5112207,3.11620728 L83.3198308,3.11620728 L83.3198308,20.9569495 L87.5112207,20.9569495 L87.5112207,14.7609818 L88.9326486,13.4306711 L94.4725727,20.9569495 Z M101.415701,20.9569495 L105.370186,20.9569495 L105.370186,7.28937375 L101.415701,7.28937375 L101.415701,20.9569495 Z M101.415701,5.57637092 L105.370186,5.57637092 L105.370186,1.84056687 L101.415701,1.84056687 L101.415701,5.57637092 Z M107.283647,10.1686764 L109.087767,10.1686764 L109.087767,17.3304861 C109.087767,19.8635435 110.381631,21.2120776 112.71423,21.2120776 C114.135658,21.2120776 114.937489,21.102737 115.739321,21.0662901 L115.739321,17.8771891 L114.46368,17.8771891 C113.424944,17.8771891 113.096923,17.5673907 113.096923,16.6015487 L113.096923,10.1686764 L115.702874,10.1686764 L115.702874,7.28937375 L113.096923,7.28937375 L113.096923,3.09798384 L109.087767,3.09798384 L109.087767,7.28937375 L107.283647,7.28937375 L107.283647,10.1686764 Z M124.450122,21.2120776 C128.459278,21.2120776 130.390962,18.8612546 130.70076,16.1824097 L126.800945,16.0366222 C126.618711,17.7678485 125.725763,18.5332328 124.523016,18.5332328 C122.810013,18.5332328 121.989959,17.1118049 121.989959,14.0502679 C121.989959,11.1527418 122.737119,9.78598426 124.450122,9.78598426 C125.798656,9.78598426 126.545817,10.6424857 126.691605,12.082137 L130.627866,11.8999026 C130.281621,9.2757281 128.295267,7.03424567 124.450122,7.03424567 C120.167615,7.03424567 117.835016,9.62197335 117.835016,14.1778319 C117.835016,18.4785625 120.003604,21.2120776 124.450122,21.2120776 Z M137.206526,7.56272526 L137.206526,0.947618587 L133.1427,0.947618587 L133.1427,20.9569495 L137.206526,20.9569495 L137.206526,13.6857992 C137.206526,11.5901043 138.172368,10.0957826 139.757807,10.0957826 C141.306799,10.0957826 141.871725,11.3349762 141.871725,13.2848837 L141.871725,20.9569495 L145.935551,20.9569495 L145.935551,12.209701 C145.935551,9.09349375 144.568794,7.03424567 141.489033,7.03424567 C139.630243,7.03424567 137.844346,7.92719395 137.097186,10.2597936 C137.151856,9.54907961 137.206526,8.52856729 137.206526,7.56272526 Z M154.901481,21.2120776 C159.111094,21.2120776 160.441405,19.2257233 160.951661,17.0024643 L157.17941,16.7655596 C156.942506,18.0958703 156.286462,18.6607968 155.029045,18.6607968 C153.115584,18.6607968 152.514211,16.947794 152.514211,15.2165677 L152.514211,14.852099 L161.152119,14.852099 C161.152119,14.852099 161.206789,14.2689491 161.206789,13.6675758 C161.206789,9.858878 159.657797,7.03424567 154.937928,7.03424567 C151.293241,7.03424567 148.268151,8.71080163 148.268151,14.0502679 C148.268151,18.8612546 150.655421,21.2120776 154.901481,21.2120776 Z M154.865034,9.42151557 C156.231792,9.42151557 157.106517,10.1322295 157.106517,12.5194994 L157.106517,12.5559463 L152.514211,12.5559463 C152.587105,10.1322295 153.552947,9.42151557 154.865034,9.42151557 Z M172.559989,20.9569495 L176.623815,20.9569495 L176.623815,11.8999026 C176.623815,9.34862183 175.657973,7.03424567 172.213744,7.03424567 C170.063378,7.03424567 168.53261,8.07298143 167.840119,10.0957826 C167.785449,9.02060001 167.657885,7.67206587 167.639662,7.28937375 L163.81274,7.28937375 C163.830964,8.05475799 163.885634,9.03882345 163.885634,10.4420279 L163.885634,20.9569495 L167.89479,20.9569495 L167.89479,13.7040226 C167.89479,11.4625402 168.805961,10.0593358 170.446071,10.0593358 C172.031509,10.0593358 172.559989,11.0251778 172.559989,12.9386384 L172.559989,20.9569495 Z" id="Shape"></path>
            </g>
            <g id="2bfa7bd7-8f35-4bf5-9159-ec9d40dccd8c" transform="translate(0.000000, 0.801655)" fill="#FDE581">
                <circle id="Oval" cx="12.6652878" cy="21.1088131" r="1"></circle>
                <circle id="Oval" cx="15.1983454" cy="21.1088131" r="1"></circle>
                <circle id="Oval" cx="17.731403" cy="21.1088131" r="1"></circle>
                <path d="M12.6652878,0 L12.6652878,2.9714454 L8.44352523,6.34885549 L8.44352523,10.9765828 L21.9531656,10.9765828 L21.9531656,6.34885549 L17.731403,2.9714454 L17.731403,0 L12.6652878,0 Z M20.2644606,9.28787775 L10.1322303,9.28787775 L10.1322303,7.59917271 L20.2644606,7.59917271 L20.2644606,9.28787775 Z M18.7017329,5.91046766 L11.6949579,5.91046766 L14.3539929,3.78337478 L14.3539929,1.68870505 L16.0426979,1.68870505 L16.0426979,3.78337478 L18.7017329,5.91046766 Z M2.53305757,5.91046766 L2.53305757,9.39899454 C1.07874478,9.77557577 0,11.0947922 0,12.6652878 C0,14.5275918 1.51510617,16.0426979 3.37741009,16.0426979 C5.23971402,16.0426979 6.75482018,14.5275918 6.75482018,12.6652878 C6.75482018,11.0947922 5.6760754,9.77557577 4.22176261,9.39899454 L4.22176261,5.91046766 L2.53305757,5.91046766 Z M5.06611514,12.6652878 C5.06611514,13.5964398 4.30856205,14.3539929 3.37741009,14.3539929 C2.44625813,14.3539929 1.68870505,13.5964398 1.68870505,12.6652878 C1.68870505,11.7341359 2.44625813,10.9765828 3.37741009,10.9765828 C4.30856205,10.9765828 5.06611514,11.7341359 5.06611514,12.6652878 Z M28.7079858,15.1983454 C28.7079858,13.8014486 27.571825,12.6652878 26.1749282,12.6652878 C24.7780314,12.6652878 23.6418706,13.8014486 23.6418706,15.1983454 L23.6418706,16.0426979 L25.3305757,16.0426979 L25.3305757,15.1983454 C25.3305757,14.7329383 25.7091834,14.3539929 26.1749282,14.3539929 C26.6406731,14.3539929 27.0192807,14.7329383 27.0192807,15.1983454 L27.0192807,17.731403 L19.420108,17.731403 L19.420108,16.8870505 L16.0426979,16.8870505 L16.0426979,17.731403 L14.3539929,17.731403 L14.3539929,16.8870505 L10.9765828,16.8870505 L10.9765828,17.731403 L0,17.731403 L0,30.3966908 L30.3966908,30.3966908 L30.3966908,17.731403 L28.7079858,17.731403 L28.7079858,15.1983454 Z M8.44352523,28.7079858 L1.68870505,28.7079858 L1.68870505,19.420108 L8.44352523,19.420108 L8.44352523,28.7079858 Z M20.2644606,28.7079858 L10.1322303,28.7079858 L10.1322303,24.4862232 L20.2644606,24.4862232 L20.2644606,28.7079858 Z M20.2644606,22.7975181 L10.1322303,22.7975181 L10.1322303,19.420108 L20.2644606,19.420108 L20.2644606,22.7975181 Z M28.7079858,28.7079858 L21.9531656,28.7079858 L21.9531656,19.420108 L28.7079858,19.420108 L28.7079858,28.7079858 Z" id="Shape"></path>
                <circle id="Oval" cx="23.6418706" cy="21.1088131" r="1"></circle>
                <circle id="Oval" cx="6.75482018" cy="21.1088131" r="1"></circle>
            </g>
        </g>
    </g>
</svg>